:SAMPLES-PER-SECOND 30
:FRAME-RANGE 1-3549
:FULLY-SPECIFIED
:DEGREES
2662
root  71.1296 38.5366 -46.0379 3.50208 -29.1634 4.32788
RightUpLeg  -24.2163 -3.99038 -1.19258
RightLeg  -4.5816 -28.39 8.00485
RightFoot  -4.87857 -0.423873 6.9098
RightToes  -1.11029e-010 1.2921e-014 -6.02303e-014
Spine  8.403 -3.44305 -8.4395
Spine1  -1.20289 -4.10543 2.28552
HEad  -12.0398 -10.3251 7.02089
LeftShoulder1  1.82112 -2.15022 -26.0627
LeftArm  0.274362 -34.7219 -30.5314
LeftForeArm  13.0855 -6.92321 -15.5265
LeftHand  -0.0505479 -0.144585 1.08617
RightShoulder  5.68588 6.59406 49.3454
RightArm  37.2731 -4.53873 14.7665
RightForeArm  -1.58592 21.7822 5.75729
RightHand  -0.557832 3.17624 -7.78866
LeftUpLeg  7.92093 10.2996 3.35075
LeftLeg  8.16019 7.64715 -2.34863
LeftFoot  -16.2955 -0.495037 -13.638
LeftToes  -1.9349e-011 -1.19469e-011 -2.02219e-012
2663
root  70.5466 38.3781 -44.7258 3.25415 -29.7629 3.86938
RightUpLeg  -24.3442 -3.65956 -0.473559
RightLeg  -1.63209 -25.3532 6.22053
RightFoot  -0.256065 -0.355919 3.64753
RightToes  -1.11029e-010 1.2921e-014 -6.02303e-014
Spine  8.43338 -3.48198 -6.5886
Spine1  -0.285473 -4.35505 2.27915
HEad  -11.8601 -10.1244 5.54989
LeftShoulder1  1.83959 -2.22983 -25.9333
LeftArm  3.56277 -36.3257 -32.6213
LeftForeArm  12.5366 -8.50712 -14.9831
LeftHand  -0.0736809 -0.248589 1.55774
RightShoulder  5.53123 6.40476 48.9217
RightArm  34.0899 -4.97092 14.8027
RightForeArm  2.18519 19.3772 7.48483
RightHand  -0.5846 3.51616 -7.86108
LeftUpLeg  11.367 10.4688 4.1324
LeftLeg  7.29952 7.43058 -2.36812
LeftFoot  -16.6315 -0.617093 -15.4252
LeftToes  -1.9349e-011 -1.19469e-011 -2.02219e-012
2664
root  69.8697 38.2141 -43.4227 3.42657 -31.0743 2.52478
RightUpLeg  -26.4589 -5.37724 2.06199
RightLeg  6.89334 -23.5294 3.04174
RightFoot  3.24595 0.406057 -2.99681
RightToes  -1.11029e-010 1.2921e-014 -6.02303e-014
Spine  9.186 -3.18848 -3.77157
Spine1  -0.0748516 -4.17705 2.29745
HEad  -11.8499 -9.76594 4.12379
LeftShoulder1  1.83616 -2.19306 -26.0856
LeftArm  9.77953 -36.4262 -34.8522
LeftForeArm  9.56893 -11.513 -13.6834
LeftHand  -0.0940965 -0.199325 1.99375
RightShoulder  5.41407 6.15357 49.1328
RightArm  32.6411 -4.92177 13.9247
RightForeArm  4.35028 17.6866 8.97412
RightHand  -0.577614 3.43335 -7.83788
LeftUpLeg  13.8819 11.3539 5.95759
LeftLeg  8.77957 6.82452 -2.02431
LeftFoot  -16.9291 -0.798786 -18.2981
LeftToes  -1.9349e-011 -1.19469e-011 -2.02219e-012
2665
root  69.1497 38.0477 -42.1758 3.96484 -33.398 0.784424
RightUpLeg  -29.0893 -12.1176 9.26154
RightLeg  15.4838 -12.3801 -2.26835
RightFoot  1.86973 0.765601 -6.48896
RightToes  -1.11029e-010 1.2921e-014 -6.02303e-014
Spine  9.8804 -2.93651 -0.69084
Spine1  -0.136241 -3.49595 1.54884
HEad  -12.387 -8.52339 3.00549
LeftShoulder1  1.84512 -2.13348 -26.6033
LeftArm  16.7231 -34.7318 -36.4615
LeftForeArm  5.10255 -15.7469 -10.8936
LeftHand  -0.0988221 -0.398713 2.04121
RightShoulder  5.91523 6.90174 49.8138
RightArm  30.4058 -4.18943 12.6527
RightForeArm  7.3497 15.3485 10.9669
RightHand  -0.588986 3.45624 -7.96775
LeftUpLeg  14.5502 17.478 9.49992
LeftLeg  14.6228 1.82233 -0.786284
LeftFoot  -16.3403 -0.910459 -22.8083
LeftToes  -1.9349e-011 -1.19469e-011 -2.02219e-012
2666
root  68.4385 37.9148 -41.0288 3.92853 -35.1534 0.164551
RightUpLeg  -29.6978 -13.4669 11.1404
RightLeg  20.9964 -8.98426 -3.9852
RightFoot  -0.680404 0.803764 -8.63902
RightToes  -1.11029e-010 1.2921e-014 -6.02303e-014
Spine  10.0332 -2.97623 0.382073
Spine1  0.908511 -3.51742 2.10909
HEad  -12.2756 -6.63442 2.15432
LeftShoulder1  1.86334 -2.1376 -26.9127
LeftArm  22.4688 -32.1969 -37.5644
LeftForeArm  1.01845 -18.9504 -8.20983
LeftHand  -0.123539 -0.468647 2.51741
RightShoulder  6.88831 8.57567 49.9598
RightArm  23.2191 -3.39592 12.1669
RightForeArm  13.7979 11.1259 13.4988
RightHand  -0.569273 3.38318 -7.76942
LeftUpLeg  12.4569 19.1325 10.8008
LeftLeg  23.7341 1.01709 0.825619
LeftFoot  -11.8801 -0.0669254 -28.6461
LeftToes  -1.9349e-011 -1.19469e-011 -2.02219e-012
2667
root  67.8023 37.8194 -39.9939 4.6983 -35.6299 -1.00317
RightUpLeg  -29.5079 -13.9656 11.8414
RightLeg  24.5132 -8.24976 -4.31824
RightFoot  -3.62889 0.527442 -8.16737
RightToes  -1.11029e-010 1.2921e-014 -6.02303e-014
Spine  10.0811 -3.30094 2.37359
Spine1  1.39081 -3.65488 2.74089
HEad  -11.028 -5.74008 1.56315
LeftShoulder1  1.87375 -2.11133 -27.2634
LeftArm  25.6694 -30.8174 -39.1086
LeftForeArm  1.00193 -19.3992 -7.81984
LeftHand  -0.147239 -0.486812 2.98302
RightShoulder  6.95569 8.79305 49.558
RightArm  20.4575 -3.16172 12.4898
RightForeArm  14.0402 10.3919 13.7554
RightHand  -0.560492 3.31405 -7.70983
LeftUpLeg  6.41135 14.5266 10.3816
LeftLeg  35.6485 2.83304 2.54293
LeftFoot  -2.73135 1.98133 -25.7091
LeftToes  -1.9349e-011 -1.19469e-011 -2.02219e-012
2668
root  67.2835 37.6323 -39.0633 5.95325 -36.2719 -3.03601
RightUpLeg  -29.2222 -13.7569 13.0503
RightLeg  27.6448 -7.83177 -4.67316
RightFoot  -6.51384 0.25357 -7.04451
RightToes  -1.11029e-010 1.2921e-014 -6.02303e-014
Spine  10.3812 -3.48518 5.60497
Spine1  1.75767 -3.29259 2.8486
HEad  -10.1301 -5.36067 1.13716
LeftShoulder1  1.89624 -2.1393 -27.5039
LeftArm  26.2467 -29.9163 -40.8507
LeftForeArm  3.49562 -18.8065 -8.26342
LeftHand  -0.153249 -0.849168 2.95624
RightShoulder  6.70377 8.40171 49.3357
RightArm  23.6085 -3.01436 12.7571
RightForeArm  8.63522 13.3998 12.1434
RightHand  -0.573379 3.09155 -8.07274
LeftUpLeg  -0.385016 11.1368 10.8551
LeftLeg  47.2381 1.5724 2.23732
LeftFoot  7.66404 2.47024 -14.9671
LeftToes  -1.9349e-011 -1.19469e-011 -2.02219e-012
2669
root  66.6702 37.7128 -38.099 5.93579 -37.6177 -3.62891
RightUpLeg  -27.1001 -12.7268 12.7393
RightLeg  28.677 -7.69497 -4.78741
RightFoot  -8.49487 0.0968784 -6.19733
RightToes  -1.11029e-010 1.2921e-014 -6.02303e-014
Spine  11.0946 -3.32625 6.51198
Spine1  1.75856 -2.90899 3.14508
HEad  -9.34534 -4.73305 0.612157
LeftShoulder1  1.90198 -2.09847 -27.8612
LeftArm  27.5985 -28.3543 -41.7947
LeftForeArm  3.72606 -19.3593 -7.70514
LeftHand  -0.170936 -0.938872 3.24898
RightShoulder  6.94659 8.83617 49.3206
RightArm  25.8487 -3.03892 12.8447
RightForeArm  5.91385 16.2234 9.98164
RightHand  -0.602234 3.13384 -8.42703
LeftUpLeg  -5.51099 9.15276 10.7738
LeftLeg  55.3266 -0.464836 -0.23547
LeftFoot  5.84913 2.32675 -15.5503
LeftToes  -1.9349e-011 -1.19469e-011 -2.02219e-012
2670
root  66.0218 37.9403 -37.1173 5.46722 -39.38 -3.36304
RightUpLeg  -24.3264 -11.5962 11.6301
RightLeg  28.3904 -7.44439 -4.41052
RightFoot  -9.85744 0.00430593 -5.46454
RightToes  -1.11029e-010 1.2921e-014 -6.02303e-014
Spine  11.6199 -3.04069 6.53672
Spine1  1.35637 -2.50282 3.05514
HEad  -8.46578 -3.85457 0.384183
LeftShoulder1  1.8988 -2.00491 -28.3928
LeftArm  29.1312 -26.082 -41.9155
LeftForeArm  2.46041 -20.7509 -6.44953
LeftHand  -0.192856 -0.723985 3.7616
RightShoulder  7.07809 9.07528 49.2978
RightArm  28.1686 -1.96123 12.9764
RightForeArm  4.34796 18.1634 8.38333
RightHand  -0.638178 3.26439 -8.78864
LeftUpLeg  -10.1468 7.95087 9.96042
LeftLeg  59.3785 -1.73957 -2.64016
LeftFoot  4.36918 2.0695 -15.1206
LeftToes  -1.9349e-011 -1.19469e-011 -2.02219e-012
2671
root  65.3433 38.2355 -36.0931 4.94818 -41.3514 -2.98804
RightUpLeg  -20.9881 -9.91691 10.0645
RightLeg  27.1534 -7.47137 -3.44208
RightFoot  -10.8764 -0.0549049 -4.56877
RightToes  -1.11029e-010 1.2921e-014 -6.02303e-014
Spine  11.8362 -2.65178 6.69003
Spine1  0.740331 -1.98724 2.41991
HEad  -7.19089 -3.18987 0.141821
LeftShoulder1  1.88791 -1.88778 -28.951
LeftArm  29.0766 -23.5001 -41.7495
LeftForeArm  1.9406 -22.1176 -5.41305
LeftHand  -0.206521 -0.647333 4.06653
RightShoulder  7.26934 9.50499 48.955
RightArm  29.942 -1.52488 13.5189
RightForeArm  2.17542 20.3202 6.56914
RightHand  -0.65173 3.21212 -9.02056
LeftUpLeg  -14.1331 7.05287 9.04028
LeftLeg  59.8824 -1.54201 -2.3319
LeftFoot  2.34358 1.69654 -14.1985
LeftToes  -1.9349e-011 -1.19469e-011 -2.02219e-012
2672
root  64.6411 38.5717 -35.0654 4.26392 -43.3988 -2.36853
RightUpLeg  -17.3319 -7.45963 8.30226
RightLeg  25.1579 -8.47325 -2.66404
RightFoot  -11.303 -0.0748941 -4.32965
RightToes  -1.11029e-010 1.2921e-014 -6.02303e-014
Spine  11.8936 -2.12056 6.65312
Spine1  -0.0858131 -1.38813 1.52799
HEad  -5.65574 -2.68674 -0.159311
LeftShoulder1  1.88284 -1.78433 -29.5504
LeftArm  27.8507 -20.9355 -41.3642
LeftForeArm  2.6377 -23.3863 -4.91767
LeftHand  -0.216438 -0.635685 4.26554
RightShoulder  7.31342 9.7108 48.4816
RightArm  30.5417 -1.2898 14.1221
RightForeArm  0.612932 22.7419 5.12922
RightHand  -0.670043 3.21431 -9.26424
LeftUpLeg  -17.2474 6.3482 8.0527
LeftLeg  56.9388 -0.778829 -0.786283
LeftFoot  0.256249 1.27396 -12.5218
LeftToes  -1.9349e-011 -1.19469e-011 -2.02219e-012
2673
root  63.9234 38.893 -34.0642 3.28436 -45.1456 -1.3717
RightUpLeg  -13.5105 -5.4465 6.58613
RightLeg  22.4958 -8.96864 -1.83056
RightFoot  -11.9007 -0.0976917 -3.53771
RightToes  -1.11029e-010 1.2921e-014 -6.02303e-014
Spine  11.7552 -1.61327 6.0905
Spine1  -0.782864 -0.938511 0.740299
HEad  -4.278 -2.30331 -0.573512
LeftShoulder1  1.85716 -1.63051 -30.1239
LeftArm  25.5796 -18.627 -40.7415
LeftForeArm  4.85173 -24.6916 -5.03203
LeftHand  -0.226288 -0.565578 4.50236
RightShoulder  7.33153 9.80212 48.2659
RightArm  27.8594 -0.929073 14.2114
RightForeArm  3.35381 25.0695 5.1975
RightHand  -0.696058 3.20644 -9.62162
LeftUpLeg  -19.3222 5.60457 6.98033
LeftLeg  50.7666 0.109867 0.582719
LeftFoot  -1.18684 1.01043 -11.266
LeftToes  -1.9349e-011 -1.19469e-011 -2.02219e-012
2674
root  63.2133 39.1867 -33.106 2.33795 -46.6244 -0.213623
RightUpLeg  -9.92644 -4.13623 5.12067
RightLeg  19.5638 -8.89436 -1.22334
RightFoot  -12.1652 -0.104285 -3.06746
RightToes  -1.11029e-010 1.2921e-014 -6.02303e-014
Spine  11.3509 -1.15975 5.1537
Spine1  -1.26727 -0.636922 0.0732318
HEad  -3.11213 -2.00029 -0.769255
LeftShoulder1  1.83403 -1.51654 -30.4875
LeftArm  23.0223 -16.4403 -40.2377
LeftForeArm  7.16551 -25.9719 -5.19603
LeftHand  -0.234002 -0.461503 4.72657
RightShoulder  7.40385 9.99536 48.0408
RightArm  25.2305 -0.569911 14.3281
RightForeArm  6.34365 27.1776 5.51859
RightHand  -0.722856 3.14808 -10.0456
LeftUpLeg  -20.4568 5.12768 5.97298
LeftLeg  41.5745 0.823756 1.15979
LeftFoot  -1.96152 0.918038 -11.0224
LeftToes  -1.9349e-011 -1.19469e-011 -2.02219e-012
